<svg xmlns="http://www.w3.org/2000/svg" xmlns:xlink="http://www.w3.org/1999/xlink" contentStyleType="text/css" data-diagram-type="DESCRIPTION" height="724px" preserveAspectRatio="none" style="width:1124px;height:724px;background:#FFFFFF;" version="1.1" viewBox="0 0 1124 724" width="1124px" zoomAndPan="magnify"><?plantuml 1.2026.3beta6?><defs/><g><!--cluster L7--><g class="cluster" data-qualified-name="L7" data-source-line="5" id="ent0002"><rect fill="none" height="97.3" rx="2.5" ry="2.5" style="stroke:#181818;stroke-width:1;" width="148" x="206" y="7"/><text fill="#000000" font-family="sans-serif" font-size="14" font-weight="700" lengthAdjust="spacing" textLength="105.3826" x="227.3087" y="21.9951">Layer 7 &#24212;&#29992;&#23618;</text></g><!--cluster L6--><g class="cluster" data-qualified-name="L6" data-source-line="9" id="ent0004"><rect fill="none" height="97.29" rx="2.5" ry="2.5" style="stroke:#181818;stroke-width:1;" width="170" x="592" y="128.3"/><text fill="#000000" font-family="sans-serif" font-size="14" font-weight="700" lengthAdjust="spacing" textLength="133.3825" x="610.3087" y="143.2951">Layer 6 &#26381;&#21153;&#38376;&#38754;&#23618;</text></g><!--cluster L5--><g class="cluster" data-qualified-name="L5" data-source-line="13" id="ent0006"><rect fill="none" height="97.3" rx="2.5" ry="2.5" style="stroke:#181818;stroke-width:1;" width="525" x="7" y="249.59"/><text fill="#000000" font-family="sans-serif" font-size="14" font-weight="700" lengthAdjust="spacing" textLength="133.3825" x="202.8087" y="264.5851">Layer 5 &#25193;&#23637;&#21151;&#33021;&#23618;</text></g><!--cluster L4--><g class="cluster" data-qualified-name="L4" data-source-line="19" id="ent0010"><rect fill="none" height="97.3" rx="2.5" ry="2.5" style="stroke:#181818;stroke-width:1;" width="134" x="66" y="370.89"/><text fill="#000000" font-family="sans-serif" font-size="14" font-weight="700" lengthAdjust="spacing" textLength="93.9599" x="86.0201" y="385.8851">Layer 4 UI&#23618;</text></g><!--cluster L3--><g class="cluster" data-qualified-name="L3" data-source-line="23" id="ent0012"><rect fill="none" height="218.6" rx="2.5" ry="2.5" style="stroke:#181818;stroke-width:1;" width="504" x="606" y="249.59"/><text fill="#000000" font-family="sans-serif" font-size="14" font-weight="700" lengthAdjust="spacing" textLength="133.3825" x="791.3087" y="264.5851">Layer 3 &#19994;&#21153;&#21151;&#33021;&#23618;</text></g><!--cluster L2--><g class="cluster" data-qualified-name="L2" data-source-line="30" id="ent0017"><rect fill="none" height="97.3" rx="2.5" ry="2.5" style="stroke:#181818;stroke-width:1;" width="325" x="257" y="370.89"/><text fill="#000000" font-family="sans-serif" font-size="14" font-weight="700" lengthAdjust="spacing" textLength="133.3825" x="352.8087" y="385.8851">Layer 2 &#26680;&#24515;&#21151;&#33021;&#23618;</text></g><!--cluster L1--><g class="cluster" data-qualified-name="L1" data-source-line="35" id="ent0020"><rect fill="none" height="97.29" rx="2.5" ry="2.5" style="stroke:#181818;stroke-width:1;" width="317" x="755" y="492.19"/><text fill="#000000" font-family="sans-serif" font-size="14" font-weight="700" lengthAdjust="spacing" textLength="133.3825" x="846.8087" y="507.1851">Layer 1 &#22522;&#30784;&#26381;&#21153;&#23618;</text></g><!--cluster L0--><g class="cluster" data-qualified-name="L0" data-source-line="40" id="ent0023"><rect fill="none" height="97.3" rx="2.5" ry="2.5" style="stroke:#181818;stroke-width:1;" width="152" x="429" y="613.48"/><text fill="#000000" font-family="sans-serif" font-size="14" font-weight="700" lengthAdjust="spacing" textLength="105.3826" x="452.3087" y="628.4751">Layer 0 &#26680;&#24515;&#23618;</text></g><!--entity app--><g class="entity" data-qualified-name="L7.app" data-source-line="6" id="ent0003"><rect fill="#F1F1F1" height="46.2969" rx="2.5" ry="2.5" style="stroke:#181818;stroke-width:0.5;" width="116.4121" x="221.79" y="42"/><rect fill="#F1F1F1" height="10" style="stroke:#181818;stroke-width:0.5;" width="15" x="318.2021" y="47"/><rect fill="#F1F1F1" height="2" style="stroke:#181818;stroke-width:0.5;" width="4" x="316.2021" y="49"/><rect fill="#F1F1F1" height="2" style="stroke:#181818;stroke-width:0.5;" width="4" x="316.2021" y="53"/><text fill="#000000" font-family="sans-serif" font-size="14" lengthAdjust="spacing" textLength="76.4121" x="236.79" y="74.9951">echart-app</text></g><!--entity facade--><g class="entity" data-qualified-name="L6.facade" data-source-line="10" id="ent0005"><rect fill="#F1F1F1" height="46.2969" rx="2.5" ry="2.5" style="stroke:#181818;stroke-width:0.5;" width="137.3438" x="608.33" y="163.3"/><rect fill="#F1F1F1" height="10" style="stroke:#181818;stroke-width:0.5;" width="15" x="725.6738" y="168.3"/><rect fill="#F1F1F1" height="2" style="stroke:#181818;stroke-width:0.5;" width="4" x="723.6738" y="170.3"/><rect fill="#F1F1F1" height="2" style="stroke:#181818;stroke-width:0.5;" width="4" x="723.6738" y="174.3"/><text fill="#000000" font-family="sans-serif" font-size="14" lengthAdjust="spacing" textLength="97.3438" x="623.33" y="196.2951">echart-facade</text></g><!--entity plugin--><g class="entity" data-qualified-name="L5.plugin" data-source-line="14" id="ent0007"><rect fill="#F1F1F1" height="46.2969" rx="2.5" ry="2.5" style="stroke:#181818;stroke-width:0.5;" width="133.3584" x="382.32" y="284.59"/><rect fill="#F1F1F1" height="10" style="stroke:#181818;stroke-width:0.5;" width="15" x="495.6784" y="289.59"/><rect fill="#F1F1F1" height="2" style="stroke:#181818;stroke-width:0.5;" width="4" x="493.6784" y="291.59"/><rect fill="#F1F1F1" height="2" style="stroke:#181818;stroke-width:0.5;" width="4" x="493.6784" y="295.59"/><text fill="#000000" font-family="sans-serif" font-size="14" lengthAdjust="spacing" textLength="93.3584" x="397.32" y="317.5851">echart-plugin</text></g><!--entity theme--><g class="entity" data-qualified-name="L5.theme" data-source-line="15" id="ent0008"><rect fill="#F1F1F1" height="46.2969" rx="2.5" ry="2.5" style="stroke:#181818;stroke-width:0.5;" width="135.2861" x="212.36" y="284.59"/><rect fill="#F1F1F1" height="10" style="stroke:#181818;stroke-width:0.5;" width="15" x="327.6461" y="289.59"/><rect fill="#F1F1F1" height="2" style="stroke:#181818;stroke-width:0.5;" width="4" x="325.6461" y="291.59"/><rect fill="#F1F1F1" height="2" style="stroke:#181818;stroke-width:0.5;" width="4" x="325.6461" y="295.59"/><text fill="#000000" font-family="sans-serif" font-size="14" lengthAdjust="spacing" textLength="95.2861" x="227.36" y="317.5851">echart-theme</text></g><!--entity ui_render--><g class="entity" data-qualified-name="L5.ui_render" data-source-line="16" id="ent0009"><rect fill="#F1F1F1" height="46.2969" rx="2.5" ry="2.5" style="stroke:#181818;stroke-width:0.5;" width="154.3721" x="22.81" y="284.59"/><rect fill="#F1F1F1" height="10" style="stroke:#181818;stroke-width:0.5;" width="15" x="157.1821" y="289.59"/><rect fill="#F1F1F1" height="2" style="stroke:#181818;stroke-width:0.5;" width="4" x="155.1821" y="291.59"/><rect fill="#F1F1F1" height="2" style="stroke:#181818;stroke-width:0.5;" width="4" x="155.1821" y="295.59"/><text fill="#000000" font-family="sans-serif" font-size="14" lengthAdjust="spacing" textLength="114.3721" x="37.81" y="317.5851">echart-ui-render</text></g><!--entity ui--><g class="entity" data-qualified-name="L4.ui" data-source-line="20" id="ent0011"><rect fill="#F1F1F1" height="46.2969" rx="2.5" ry="2.5" style="stroke:#181818;stroke-width:0.5;" width="102.8223" x="81.59" y="405.89"/><rect fill="#F1F1F1" height="10" style="stroke:#181818;stroke-width:0.5;" width="15" x="164.4123" y="410.89"/><rect fill="#F1F1F1" height="2" style="stroke:#181818;stroke-width:0.5;" width="4" x="162.4123" y="412.89"/><rect fill="#F1F1F1" height="2" style="stroke:#181818;stroke-width:0.5;" width="4" x="162.4123" y="416.89"/><text fill="#000000" font-family="sans-serif" font-size="14" lengthAdjust="spacing" textLength="62.8223" x="96.59" y="438.8851">echart-ui</text></g><!--entity alarm--><g class="entity" data-qualified-name="L3.alarm" data-source-line="24" id="ent0013"><rect fill="#F1F1F1" height="46.2969" rx="2.5" ry="2.5" style="stroke:#181818;stroke-width:0.5;" width="130.501" x="621.75" y="405.89"/><rect fill="#F1F1F1" height="10" style="stroke:#181818;stroke-width:0.5;" width="15" x="732.251" y="410.89"/><rect fill="#F1F1F1" height="2" style="stroke:#181818;stroke-width:0.5;" width="4" x="730.251" y="412.89"/><rect fill="#F1F1F1" height="2" style="stroke:#181818;stroke-width:0.5;" width="4" x="730.251" y="416.89"/><text fill="#000000" font-family="sans-serif" font-size="14" lengthAdjust="spacing" textLength="90.501" x="636.75" y="438.8851">echart-alarm</text></g><!--entity ais--><g class="entity" data-qualified-name="L3.ais" data-source-line="25" id="ent0014"><rect fill="#F1F1F1" height="46.2969" rx="2.5" ry="2.5" style="stroke:#181818;stroke-width:0.5;" width="109.8223" x="622.09" y="284.59"/><rect fill="#F1F1F1" height="10" style="stroke:#181818;stroke-width:0.5;" width="15" x="711.9123" y="289.59"/><rect fill="#F1F1F1" height="2" style="stroke:#181818;stroke-width:0.5;" width="4" x="709.9123" y="291.59"/><rect fill="#F1F1F1" height="2" style="stroke:#181818;stroke-width:0.5;" width="4" x="709.9123" y="295.59"/><text fill="#000000" font-family="sans-serif" font-size="14" lengthAdjust="spacing" textLength="69.8223" x="637.09" y="317.5851">echart-ais</text></g><!--entity route--><g class="entity" data-qualified-name="L3.route" data-source-line="26" id="ent0015"><rect fill="#F1F1F1" height="46.2969" rx="2.5" ry="2.5" style="stroke:#181818;stroke-width:0.5;" width="127.3564" x="966.32" y="284.59"/><rect fill="#F1F1F1" height="10" style="stroke:#181818;stroke-width:0.5;" width="15" x="1073.6764" y="289.59"/><rect fill="#F1F1F1" height="2" style="stroke:#181818;stroke-width:0.5;" width="4" x="1071.6764" y="291.59"/><rect fill="#F1F1F1" height="2" style="stroke:#181818;stroke-width:0.5;" width="4" x="1071.6764" y="295.59"/><text fill="#000000" font-family="sans-serif" font-size="14" lengthAdjust="spacing" textLength="87.3564" x="981.32" y="317.5851">echart-route</text></g><!--entity workspace--><g class="entity" data-qualified-name="L3.workspace" data-source-line="27" id="ent0016"><rect fill="#F1F1F1" height="46.2969" rx="2.5" ry="2.5" style="stroke:#181818;stroke-width:0.5;" width="165.0088" x="766.5" y="284.59"/><rect fill="#F1F1F1" height="10" style="stroke:#181818;stroke-width:0.5;" width="15" x="911.5088" y="289.59"/><rect fill="#F1F1F1" height="2" style="stroke:#181818;stroke-width:0.5;" width="4" x="909.5088" y="291.59"/><rect fill="#F1F1F1" height="2" style="stroke:#181818;stroke-width:0.5;" width="4" x="909.5088" y="295.59"/><text fill="#000000" font-family="sans-serif" font-size="14" lengthAdjust="spacing" textLength="125.0088" x="781.5" y="317.5851">echart-workspace</text></g><!--entity render--><g class="entity" data-qualified-name="L2.render" data-source-line="31" id="ent0018"><rect fill="#F1F1F1" height="46.2969" rx="2.5" ry="2.5" style="stroke:#181818;stroke-width:0.5;" width="136.5576" x="272.72" y="405.89"/><rect fill="#F1F1F1" height="10" style="stroke:#181818;stroke-width:0.5;" width="15" x="389.2776" y="410.89"/><rect fill="#F1F1F1" height="2" style="stroke:#181818;stroke-width:0.5;" width="4" x="387.2776" y="412.89"/><rect fill="#F1F1F1" height="2" style="stroke:#181818;stroke-width:0.5;" width="4" x="387.2776" y="416.89"/><text fill="#000000" font-family="sans-serif" font-size="14" lengthAdjust="spacing" textLength="96.5576" x="287.72" y="438.8851">echart-render</text></g><!--entity data--><g class="entity" data-qualified-name="L2.data" data-source-line="32" id="ent0019"><rect fill="#F1F1F1" height="46.2969" rx="2.5" ry="2.5" style="stroke:#181818;stroke-width:0.5;" width="121.5938" x="444.2" y="405.89"/><rect fill="#F1F1F1" height="10" style="stroke:#181818;stroke-width:0.5;" width="15" x="545.7938" y="410.89"/><rect fill="#F1F1F1" height="2" style="stroke:#181818;stroke-width:0.5;" width="4" x="543.7938" y="412.89"/><rect fill="#F1F1F1" height="2" style="stroke:#181818;stroke-width:0.5;" width="4" x="543.7938" y="416.89"/><text fill="#000000" font-family="sans-serif" font-size="14" lengthAdjust="spacing" textLength="81.5938" x="459.2" y="438.8851">echart-data</text></g><!--entity event--><g class="entity" data-qualified-name="L1.event" data-source-line="36" id="ent0021"><rect fill="#F1F1F1" height="46.2969" rx="2.5" ry="2.5" style="stroke:#181818;stroke-width:0.5;" width="129.9336" x="771.03" y="527.19"/><rect fill="#F1F1F1" height="10" style="stroke:#181818;stroke-width:0.5;" width="15" x="880.9636" y="532.19"/><rect fill="#F1F1F1" height="2" style="stroke:#181818;stroke-width:0.5;" width="4" x="878.9636" y="534.19"/><rect fill="#F1F1F1" height="2" style="stroke:#181818;stroke-width:0.5;" width="4" x="878.9636" y="538.19"/><text fill="#000000" font-family="sans-serif" font-size="14" lengthAdjust="spacing" textLength="89.9336" x="786.03" y="560.1851">echart-event</text></g><!--entity i18n--><g class="entity" data-qualified-name="L1.i18n" data-source-line="37" id="ent0022"><rect fill="#F1F1F1" height="46.2969" rx="2.5" ry="2.5" style="stroke:#181818;stroke-width:0.5;" width="120.6367" x="935.68" y="527.19"/><rect fill="#F1F1F1" height="10" style="stroke:#181818;stroke-width:0.5;" width="15" x="1036.3167" y="532.19"/><rect fill="#F1F1F1" height="2" style="stroke:#181818;stroke-width:0.5;" width="4" x="1034.3167" y="534.19"/><rect fill="#F1F1F1" height="2" style="stroke:#181818;stroke-width:0.5;" width="4" x="1034.3167" y="538.19"/><text fill="#000000" font-family="sans-serif" font-size="14" lengthAdjust="spacing" textLength="80.6367" x="950.68" y="560.1851">echart-i18n</text></g><!--entity core--><g class="entity" data-qualified-name="L0.core" data-source-line="41" id="ent0024"><rect fill="#F1F1F1" height="46.2969" rx="2.5" ry="2.5" style="stroke:#181818;stroke-width:0.5;" width="120.6914" x="444.65" y="648.48"/><rect fill="#F1F1F1" height="10" style="stroke:#181818;stroke-width:0.5;" width="15" x="545.3414" y="653.48"/><rect fill="#F1F1F1" height="2" style="stroke:#181818;stroke-width:0.5;" width="4" x="543.3414" y="655.48"/><rect fill="#F1F1F1" height="2" style="stroke:#181818;stroke-width:0.5;" width="4" x="543.3414" y="659.48"/><text fill="#000000" font-family="sans-serif" font-size="14" lengthAdjust="spacing" textLength="80.6914" x="459.65" y="681.4751">echart-core</text></g><!--link app to facade--><g class="link" data-entity-1="ent0003" data-entity-2="ent0005" data-link-type="dependency" data-source-line="45" id="lnk25"><path d="M299.4,88.6 C299.4,123.94 299.4,186.78 299.4,186.78 C299.4,186.78 493.27,186.78 602.18,186.78" fill="none" id="app-to-facade" style="stroke:#181818;stroke-width:1;"/><polygon fill="#181818" points="608.18,186.78,599.18,182.78,603.18,186.78,599.18,190.78,608.18,186.78" style="stroke:#181818;stroke-width:1;"/></g><!--link app to theme--><g class="link" data-entity-1="ent0003" data-entity-2="ent0008" data-link-type="dependency" data-source-line="46" id="lnk26"><path d="M260.6,88.41 C260.6,134.66 260.6,231.71 260.6,278.19" fill="none" id="app-to-theme" style="stroke:#181818;stroke-width:1;"/><polygon fill="#181818" points="260.6,284.19,264.6,275.19,260.6,279.19,256.6,275.19,260.6,284.19" style="stroke:#181818;stroke-width:1;"/></g><!--link app to ui_render--><g class="link" data-entity-1="ent0003" data-entity-2="ent0009" data-link-type="dependency" data-source-line="47" id="lnk27"><path d="M221.56,57.78 C169,57.78 100,57.78 100,57.78 C100,57.78 100,216 100,278.23" fill="none" id="app-to-ui_render" style="stroke:#181818;stroke-width:1;"/><polygon fill="#181818" points="100,284.23,104,275.23,100,279.23,96,275.23,100,284.23" style="stroke:#181818;stroke-width:1;"/></g><!--link app to ui--><g class="link" data-entity-1="ent0003" data-entity-2="ent0011" data-link-type="dependency" data-source-line="48" id="lnk28"><path d="M221.3,73.78 C199.33,73.78 179.59,73.78 179.59,73.78 C179.59,73.78 179.59,320.11 179.59,399.45" fill="none" id="app-to-ui" style="stroke:#181818;stroke-width:1;"/><polygon fill="#181818" points="179.59,405.45,183.59,396.45,179.59,400.45,175.59,396.45,179.59,405.45" style="stroke:#181818;stroke-width:1;"/></g><!--link app to i18n--><g class="link" data-entity-1="ent0003" data-entity-2="ent0022" data-link-type="dependency" data-source-line="49" id="lnk29"><path d="M338.52,65.78 C502.77,65.78 956.11,65.78 956.11,65.78 C956.11,65.78 956.11,424.17 956.11,520.96" fill="none" id="app-to-i18n" style="stroke:#181818;stroke-width:1;"/><polygon fill="#181818" points="956.11,526.96,960.11,517.96,956.11,521.96,952.11,517.96,956.11,526.96" style="stroke:#181818;stroke-width:1;"/></g><!--link facade to plugin--><g class="link" data-entity-1="ent0005" data-entity-2="ent0007" data-link-type="dependency" data-source-line="52" id="lnk30"><path d="M615.04,209.86 C615.04,243.31 615.04,300.78 615.04,300.78 C615.04,300.78 568.14,300.78 522.06,300.78" fill="none" id="facade-to-plugin" style="stroke:#181818;stroke-width:1;"/><polygon fill="#181818" points="516.06,300.78,525.06,304.78,521.06,300.78,525.06,296.78,516.06,300.78" style="stroke:#181818;stroke-width:1;"/></g><!--link facade to alarm--><g class="link" data-entity-1="ent0005" data-entity-2="ent0013" data-link-type="dependency" data-source-line="53" id="lnk31"><path d="M736.5,209.71 C736.5,255.96 736.5,353.01 736.5,399.49" fill="none" id="facade-to-alarm" style="stroke:#181818;stroke-width:1;"/><polygon fill="#181818" points="736.5,405.49,740.5,396.49,736.5,400.49,732.5,396.49,736.5,405.49" style="stroke:#181818;stroke-width:1;"/></g><!--link facade to ais--><g class="link" data-entity-1="ent0005" data-entity-2="ent0014" data-link-type="dependency" data-source-line="54" id="lnk32"><path d="M677,209.83 C677,231.31 677,256.97 677,278.43" fill="none" id="facade-to-ais" style="stroke:#181818;stroke-width:1;"/><polygon fill="#181818" points="677,284.43,681,275.43,677,279.43,673,275.43,677,284.43" style="stroke:#181818;stroke-width:1;"/></g><!--link facade to route--><g class="link" data-entity-1="ent0005" data-entity-2="ent0015" data-link-type="dependency" data-source-line="55" id="lnk33"><path d="M745.9,186.78 C848.63,186.78 1030,186.78 1030,186.78 C1030,186.78 1030,242.93 1030,278.13" fill="none" id="facade-to-route" style="stroke:#181818;stroke-width:1;"/><polygon fill="#181818" points="1030,284.13,1034,275.13,1030,279.13,1026,275.13,1030,284.13" style="stroke:#181818;stroke-width:1;"/></g><!--link facade to workspace--><g class="link" data-entity-1="ent0005" data-entity-2="ent0016" data-link-type="dependency" data-source-line="56" id="lnk34"><path d="M741.08,209.86 C741.08,243.31 741.08,300.78 741.08,300.78 C741.08,300.78 745.62,300.78 760.11,300.78" fill="none" id="facade-to-workspace" style="stroke:#181818;stroke-width:1;"/><polygon fill="#181818" points="766.11,300.78,757.11,296.78,761.11,300.78,757.11,304.78,766.11,300.78" style="stroke:#181818;stroke-width:1;"/></g><!--link facade to event--><g class="link" data-entity-1="ent0005" data-entity-2="ent0021" data-link-type="dependency" data-source-line="57" id="lnk35"><path d="M618.39,209.83 C618.39,291.02 618.39,555.78 618.39,555.78 C618.39,555.78 700.61,555.78 764.71,555.78" fill="none" id="facade-to-event" style="stroke:#181818;stroke-width:1;"/><polygon fill="#181818" points="770.71,555.78,761.71,551.78,765.71,555.78,761.71,559.78,770.71,555.78" style="stroke:#181818;stroke-width:1;"/></g><!--link plugin to alarm--><g class="link" data-entity-1="ent0007" data-entity-2="ent0013" data-link-type="dependency" data-source-line="60" id="lnk36"><path d="M516.11,315.78 C560.92,315.78 611.68,315.78 611.68,315.78 C611.68,315.78 611.68,429.78 611.68,429.78 C611.68,429.78 609.55,429.78 615.53,429.78" fill="none" id="plugin-to-alarm" style="stroke:#181818;stroke-width:1;"/><polygon fill="#181818" points="621.53,429.78,612.53,425.78,616.53,429.78,612.53,433.78,621.53,429.78" style="stroke:#181818;stroke-width:1;"/></g><!--link theme to ui--><g class="link" data-entity-1="ent0008" data-entity-2="ent0011" data-link-type="dependency" data-source-line="61" id="lnk37"><path d="M211.94,315.78 C195.22,315.78 182,315.78 182,315.78 C182,315.78 182,366.4 182,399.57" fill="none" id="theme-to-ui" style="stroke:#181818;stroke-width:1;"/><polygon fill="#181818" points="182,405.57,186,396.57,182,400.57,178,396.57,182,405.57" style="stroke:#181818;stroke-width:1;"/></g><!--link theme to alarm--><g class="link" data-entity-1="ent0008" data-entity-2="ent0013" data-link-type="dependency" data-source-line="62" id="lnk38"><path d="M310.18,331.22 C310.18,340.85 310.18,349.78 310.18,349.78 C310.18,349.78 649.54,349.78 649.54,349.78 C649.54,349.78 649.54,376.31 649.54,399.69" fill="none" id="theme-to-alarm" style="stroke:#181818;stroke-width:1;"/><polygon fill="#181818" points="649.54,405.69,653.54,396.69,649.54,400.69,645.54,396.69,649.54,405.69" style="stroke:#181818;stroke-width:1;"/></g><!--link ui_render to ui--><g class="link" data-entity-1="ent0009" data-entity-2="ent0011" data-link-type="dependency" data-source-line="63" id="lnk39"><path d="M129.39,331.13 C129.39,352.61 129.39,378.27 129.39,399.72" fill="none" id="ui_render-to-ui" style="stroke:#181818;stroke-width:1;"/><polygon fill="#181818" points="129.39,405.72,133.39,396.72,129.39,400.72,125.39,396.72,129.39,405.72" style="stroke:#181818;stroke-width:1;"/></g><!--link ui_render to render--><g class="link" data-entity-1="ent0009" data-entity-2="ent0018" data-link-type="dependency" data-source-line="64" id="lnk40"><path d="M177.52,300.78 C189.71,300.78 198.38,300.78 198.38,300.78 C198.38,300.78 198.38,429.78 198.38,429.78 C198.38,429.78 230.01,429.78 266.62,429.78" fill="none" id="ui_render-to-render" style="stroke:#181818;stroke-width:1;"/><polygon fill="#181818" points="272.62,429.78,263.62,425.78,267.62,429.78,263.62,433.78,272.62,429.78" style="stroke:#181818;stroke-width:1;"/></g><!--link ui to core--><g class="link" data-entity-1="ent0011" data-entity-2="ent0024" data-link-type="dependency" data-source-line="67" id="lnk41"><path d="M133,452.63 C133,515.05 133,679.78 133,679.78 C133,679.78 332.99,679.78 438.4,679.78" fill="none" id="ui-to-core" style="stroke:#181818;stroke-width:1;"/><polygon fill="#181818" points="444.4,679.78,435.4,675.78,439.4,679.78,435.4,683.78,444.4,679.78" style="stroke:#181818;stroke-width:1;"/></g><!--link alarm to event--><g class="link" data-entity-1="ent0013" data-entity-2="ent0021" data-link-type="dependency" data-source-line="70" id="lnk42"><path d="M687,452.66 C687,486.77 687,545.78 687,545.78 C687,545.78 724.61,545.78 764.65,545.78" fill="none" id="alarm-to-event" style="stroke:#181818;stroke-width:1;"/><polygon fill="#181818" points="770.65,545.78,761.65,541.78,765.65,545.78,761.65,549.78,770.65,545.78" style="stroke:#181818;stroke-width:1;"/></g><!--link alarm to i18n--><g class="link" data-entity-1="ent0013" data-entity-2="ent0022" data-link-type="dependency" data-source-line="71" id="lnk43"><path d="M752.66,429.78 C829.37,429.78 945.9,429.78 945.9,429.78 C945.9,429.78 945.9,485.72 945.9,520.8" fill="none" id="alarm-to-i18n" style="stroke:#181818;stroke-width:1;"/><polygon fill="#181818" points="945.9,526.8,949.9,517.8,945.9,521.8,941.9,517.8,945.9,526.8" style="stroke:#181818;stroke-width:1;"/></g><!--link ais to alarm--><g class="link" data-entity-1="ent0014" data-entity-2="ent0013" data-link-type="dependency" data-source-line="72" id="lnk44"><path d="M704.46,331.13 C704.46,352.61 704.46,378.27 704.46,399.72" fill="none" id="ais-to-alarm" style="stroke:#181818;stroke-width:1;"/><polygon fill="#181818" points="704.46,405.72,708.46,396.72,704.46,400.72,700.46,396.72,704.46,405.72" style="stroke:#181818;stroke-width:1;"/></g><!--link ais to render--><g class="link" data-entity-1="ent0014" data-entity-2="ent0018" data-link-type="dependency" data-source-line="73" id="lnk45"><path d="M677,331.17 C677,348.38 677,368.78 677,368.78 C677,368.78 395.8,368.78 395.8,368.78 C395.8,368.78 395.8,382.65 395.8,399.57" fill="none" id="ais-to-render" style="stroke:#181818;stroke-width:1;"/><polygon fill="#181818" points="395.8,405.57,399.8,396.57,395.8,400.57,391.8,396.57,395.8,405.57" style="stroke:#181818;stroke-width:1;"/></g><!--link ais to event--><g class="link" data-entity-1="ent0014" data-entity-2="ent0021" data-link-type="dependency" data-source-line="74" id="lnk46"><path d="M732.4,315.78 C747.3,315.78 759.37,315.78 759.37,315.78 C759.37,315.78 759.37,536.78 759.37,536.78 C759.37,536.78 757.87,536.78 764.68,536.78" fill="none" id="ais-to-event" style="stroke:#181818;stroke-width:1;"/><polygon fill="#181818" points="770.68,536.78,761.68,532.78,765.68,536.78,761.68,540.78,770.68,536.78" style="stroke:#181818;stroke-width:1;"/></g><!--link route to event--><g class="link" data-entity-1="ent0015" data-entity-2="ent0021" data-link-type="dependency" data-source-line="75" id="lnk47"><path d="M996.32,331.32 C996.32,354.93 996.32,387.78 996.32,387.78 C996.32,387.78 857.66,387.78 857.66,387.78 C857.66,387.78 857.66,475.61 857.66,520.7" fill="none" id="route-to-event" style="stroke:#181818;stroke-width:1;"/><polygon fill="#181818" points="857.66,526.7,861.66,517.7,857.66,521.7,853.66,517.7,857.66,526.7" style="stroke:#181818;stroke-width:1;"/></g><!--link route to i18n--><g class="link" data-entity-1="ent0015" data-entity-2="ent0022" data-link-type="dependency" data-source-line="76" id="lnk48"><path d="M1026.32,331 C1026.32,377.25 1026.32,474.3 1026.32,520.79" fill="none" id="route-to-i18n" style="stroke:#181818;stroke-width:1;"/><polygon fill="#181818" points="1026.32,526.79,1030.32,517.79,1026.32,521.79,1022.32,517.79,1026.32,526.79" style="stroke:#181818;stroke-width:1;"/></g><!--link workspace to event--><g class="link" data-entity-1="ent0016" data-entity-2="ent0021" data-link-type="dependency" data-source-line="77" id="lnk49"><path d="M814.34,331 C814.34,377.25 814.34,474.3 814.34,520.79" fill="none" id="workspace-to-event" style="stroke:#181818;stroke-width:1;"/><polygon fill="#181818" points="814.34,526.79,818.34,517.79,814.34,521.79,810.34,517.79,814.34,526.79" style="stroke:#181818;stroke-width:1;"/></g><!--link render to core--><g class="link" data-entity-1="ent0018" data-entity-2="ent0024" data-link-type="dependency" data-source-line="80" id="lnk50"><path d="M341,452.5 C341,512.13 341,664.78 341,664.78 C341,664.78 391.68,664.78 438.4,664.78" fill="none" id="render-to-core" style="stroke:#181818;stroke-width:1;"/><polygon fill="#181818" points="444.4,664.78,435.4,660.78,439.4,664.78,435.4,668.78,444.4,664.78" style="stroke:#181818;stroke-width:1;"/></g><!--link data to core--><g class="link" data-entity-1="ent0019" data-entity-2="ent0024" data-link-type="dependency" data-source-line="81" id="lnk51"><path d="M484.88,452.3 C484.88,498.55 484.88,595.6 484.88,642.08" fill="none" id="data-to-core" style="stroke:#181818;stroke-width:1;"/><polygon fill="#181818" points="484.88,648.08,488.88,639.08,484.88,643.08,480.88,639.08,484.88,648.08" style="stroke:#181818;stroke-width:1;"/></g><!--link event to core--><g class="link" data-entity-1="ent0021" data-entity-2="ent0024" data-link-type="dependency" data-source-line="84" id="lnk52"><path d="M770.83,564.78 C679.67,564.78 525.12,564.78 525.12,564.78 C525.12,564.78 525.12,610.73 525.12,642.18" fill="none" id="event-to-core" style="stroke:#181818;stroke-width:1;"/><polygon fill="#181818" points="525.12,648.18,529.12,639.18,525.12,643.18,521.12,639.18,525.12,648.18" style="stroke:#181818;stroke-width:1;"/></g><!--link i18n to core--><g class="link" data-entity-1="ent0022" data-entity-2="ent0024" data-link-type="dependency" data-source-line="85" id="lnk53"><path d="M996,573.75 C996,609.04 996,671.78 996,671.78 C996,671.78 703.07,671.78 571.7,671.78" fill="none" id="i18n-to-core" style="stroke:#181818;stroke-width:1;"/><polygon fill="#181818" points="565.7,671.78,574.7,675.78,570.7,671.78,574.7,667.78,565.7,671.78" style="stroke:#181818;stroke-width:1;"/></g><?plantuml-src RL9DQnH14BtFhoXooMaX-nbFteNSn9E8DBFjRhEpCqDFZxA88EQKWBUe40mnNamkGWv2N53_pCvkyY-ShfhkwMbwBbDLh_lLgzTLB4IQCycMaBDumMRygLeb72IF5Kjd2OyAUo0HALUhd4CcrJoBedseRZ_irZ-gd-URtoTHSn_sZjYAIpY4QdssExkkp-m1A-3e4Dv6K7_FUJndKlLOdh_GGFsFtaN-zGbiltwiJgyUlbm_N7ot91EFv1MBsPGZ3uK1gZ5iJswgsq_LwUNzyHzBDVQeygISYHIfAEoWQiwNr0UZ3bQAdkJfb4l4I_6Iie2K4JnxOWMCF06bQEu7BWvXStTUs-7DCFGzJPXSagiwwcAY84GKdRhCIaMJOTJ1tcHoKTHI2BTPGE00jj_kgd_7di219z3ngJ79HQTCCSHq46ZIX-folRjwJwjXc_Iz9lmrJnNoODJ1HFyHlR4E0YqEp1o6_C0ZZpD9RkX04-o3MVZDtulxNv-ZUg6Xrtji5jAaj3ScQxUahTWGjLdYYI4cGZpHRAXJeGTt2_KxEoazhbDeNzCfac6szTYqfdvE8vp6w6uJ0krmva2tq0nkkunCbr8WZivQT6XzrToEoZP7l-fv7GacCoOtATr4Bu8vCbbdGfOCZ1nd81IiTpOWls_E8qzxG7UosNy0?></g></svg>